<svg id="Layer_1" data-name="Layer 1" xmlns="http://www.w3.org/2000/svg" viewBox="0 0 24 24"><title>Artboard 23</title><g id="_Group_" data-name="&lt;Group&gt;"><path id="_Compound_Path_" data-name="&lt;Compound Path&gt;" d="M3.5,6.7A1.5,1.5,0,1,1,5,5.2,1.5,1.5,0,0,1,3.5,6.7Zm0-2a.5.5,0,1,0,.5.5A.5.5,0,0,0,3.5,4.7Z"/></g><g id="_Group_2" data-name="&lt;Group&gt;"><path id="_Compound_Path_2" data-name="&lt;Compound Path&gt;" d="M3.5,11.7a.5.5,0,0,1-.41-.22C2.77,11,0,7,0,5.2a3.5,3.5,0,0,1,7,0C7,7,4.23,11,3.91,11.49A.5.5,0,0,1,3.5,11.7Zm0-9A2.5,2.5,0,0,0,1,5.2c0,1,1.4,3.42,2.5,5.1C4.6,8.63,6,6.17,6,5.2A2.5,2.5,0,0,0,3.5,2.7Z"/></g><g id="_Group_3" data-name="&lt;Group&gt;"><path id="_Compound_Path_3" data-name="&lt;Compound Path&gt;" d="M19.5,14.57a2.5,2.5,0,1,1,2.5-2.5A2.5,2.5,0,0,1,19.5,14.57Zm0-4a1.5,1.5,0,1,0,1.5,1.5A1.5,1.5,0,0,0,19.5,10.57Z"/></g><g id="_Group_4" data-name="&lt;Group&gt;"><path id="_Compound_Path_4" data-name="&lt;Compound Path&gt;" d="M19.5,21.57a.5.5,0,0,1-.43-.25c-.42-.71-4.07-7-4.07-9.25a4.5,4.5,0,1,1,9,0c0,2.28-3.65,8.55-4.07,9.25A.5.5,0,0,1,19.5,21.57Zm0-13a3.5,3.5,0,0,0-3.5,3.5c0,1.51,2.23,5.76,3.5,8,1.27-2.24,3.5-6.49,3.5-8A3.5,3.5,0,0,0,19.5,8.57Z"/></g><path d="M15.25,19.07a.55.55,0,0,0-.74.15.51.51,0,0,0,.21.7,12.84,12.84,0,0,0,2.1,1,.52.52,0,0,0,.68-.29.53.53,0,0,0-.35-.66A11.58,11.58,0,0,1,15.25,19.07Z"/><path d="M12.34,15.86a.5.5,0,0,0-.31.66,5.44,5.44,0,0,0,1.26,2.08.57.57,0,0,0,.26.16.47.47,0,0,0,.47-.12.55.55,0,0,0,0-.76,4.25,4.25,0,0,1-1-1.63A.56.56,0,0,0,12.34,15.86Z"/><path d="M10,12.61a.54.54,0,0,0-.72-.07l0,0a.52.52,0,0,0,0,.74A17.86,17.86,0,0,0,11,14.83a.52.52,0,0,0,.74-.06.54.54,0,0,0-.14-.74A16.82,16.82,0,0,1,10,12.61Z"/><path d="M6.09,10.42a.5.5,0,0,0-.61.39.56.56,0,0,0,.47.6,4,4,0,0,1,1.72.77.59.59,0,0,0,.51.1.49.49,0,0,0,.25-.15.5.5,0,0,0-.11-.72A5.3,5.3,0,0,0,6.09,10.42Z"/><path d="M5.12,22.3H4.84a.33.33,0,0,1-.36-.36V15.49a.32.32,0,0,1,.09-.23,1.72,1.72,0,0,0,.28-.45.33.33,0,0,1,.32-.25h0a.27.27,0,0,1,.29.3v7.08A.33.33,0,0,1,5.12,22.3Z"/></svg>