<svg id="Layer_1" data-name="Layer 1" xmlns="http://www.w3.org/2000/svg" viewBox="0 0 24 24"><title>Artboard 1</title><path d="M18.67,21l-.16,0-2.67-.89c-1.6-.67-2.12-3-2.12-3.59a.5.5,0,0,1,.18-.39,3,3,0,0,0,1.15-1.84A1.43,1.43,0,0,1,15.6,13a5.78,5.78,0,0,0,.34-1.35l0-.05c-.28,0-.41-.19-.41-.47V8.5c0-1.28-.4-1.53-.57-1.64a.64.64,0,0,1-.34-.47.5.5,0,0,1,0-.18C14.54,5.86,14,5,12,5A3.7,3.7,0,0,0,8.5,8.5v2.67a.5.5,0,0,1-.44.5A5.65,5.65,0,0,0,8.4,13a1.43,1.43,0,0,1,.54,1.24,3,3,0,0,0,1.15,1.84.5.5,0,0,1,.18.39c0,.57-.52,2.92-2.08,3.57l-2.7.9A.5.5,0,0,1,5.17,20l2.67-.89c.89-.37,1.31-1.84,1.41-2.43a3.74,3.74,0,0,1-1.31-2.43c0-.29-.08-.4-.11-.42a.41.41,0,0,1-.29-.28,6.68,6.68,0,0,1-.48-2,.5.5,0,0,1,0-.12,1.17,1.17,0,0,1,.43-.66V8.5A4.69,4.69,0,0,1,12,4c2.73,0,3.49,1.39,3.6,2.11a2.66,2.66,0,0,1,.9,2.39v2.33a1.17,1.17,0,0,1,.43.66.5.5,0,0,1,0,.12,6.68,6.68,0,0,1-.48,2,.5.5,0,0,1-.34.3,1.37,1.37,0,0,0-.07.4,3.74,3.74,0,0,1-1.31,2.43c.1.59.53,2.06,1.45,2.44l2.63.88a.5.5,0,0,1-.16,1Z"/><path d="M12,24A12,12,0,1,1,24,12,12,12,0,0,1,12,24ZM12,1A11,11,0,1,0,23,12,11,11,0,0,0,12,1Z"/></svg>