<svg id="Layer_1" data-name="Layer 1" xmlns="http://www.w3.org/2000/svg" viewBox="0 0 24 24"><title>Artboard 18</title><path d="M9.47,0H1.68A1.68,1.68,0,0,0,0,1.68v7.8a1.68,1.68,0,0,0,1.68,1.68h7.8a1.68,1.68,0,0,0,1.68-1.68V1.68A1.68,1.68,0,0,0,9.47,0Zm.68,9.47a.68.68,0,0,1-.68.68H1.68A.68.68,0,0,1,1,9.47V1.68A.68.68,0,0,1,1.68,1h7.8a.68.68,0,0,1,.68.68Z"/><path d="M9.47,12.85H1.68A1.68,1.68,0,0,0,0,14.53v7.8A1.68,1.68,0,0,0,1.68,24h7.8a1.68,1.68,0,0,0,1.68-1.68v-7.8A1.68,1.68,0,0,0,9.47,12.85Zm.68,9.47a.68.68,0,0,1-.68.68H1.68A.68.68,0,0,1,1,22.32v-7.8a.68.68,0,0,1,.68-.68h7.8a.68.68,0,0,1,.68.68Z"/><path d="M22.32,0h-7.8a1.68,1.68,0,0,0-1.68,1.68v7.8a1.68,1.68,0,0,0,1.68,1.68h7.8A1.68,1.68,0,0,0,24,9.47V1.68A1.68,1.68,0,0,0,22.32,0ZM23,9.47a.68.68,0,0,1-.68.68h-7.8a.68.68,0,0,1-.68-.68V1.68A.68.68,0,0,1,14.53,1h7.8a.68.68,0,0,1,.68.68Z"/><path d="M22.32,12.85h-7.8a1.68,1.68,0,0,0-1.68,1.68v7.8A1.68,1.68,0,0,0,14.53,24h7.8A1.68,1.68,0,0,0,24,22.32v-7.8A1.68,1.68,0,0,0,22.32,12.85ZM23,22.32a.68.68,0,0,1-.68.68h-7.8a.68.68,0,0,1-.68-.68v-7.8a.68.68,0,0,1,.68-.68h7.8a.68.68,0,0,1,.68.68Z"/></svg>